PathFileType	4	(X/Y/Z)	/Users/niels/Desktop/University/Third Semester/Perception and Action/Exam/Gymnastics Motion Tracking/Code for Gym Tracking/Analyzed Data/Webcam_Backflip/id19_2_trajectory_Sports2D/id19_2_trajectory_Sports2D_px_person00.trc
DataRate	CameraRate	NumFrames	NumMarkers	Units	OrigDataRate	OrigDataStartFrame	OrigNumFrames
29.714285714285715	29.714285714285715	11	22	m	29.714285714285715	0	105
Frame#	Time	Hip			RHip			RKnee			RAnkle			RBigToe			RSmallToe			RHeel			LHip			LKnee			LAnkle			LBigToe			LSmallToe			LHeel			Neck			Head			Nose			RShoulder			RElbow			RWrist			LShoulder			LElbow			LWrist		
		X1	Y1	Z1	X2	Y2	Z2	X3	Y3	Z3	X4	Y4	Z4	X5	Y5	Z5	X6	Y6	Z6	X7	Y7	Z7	X8	Y8	Z8	X9	Y9	Z9	X10	Y10	Z10	X11	Y11	Z11	X12	Y12	Z12	X13	Y13	Z13	X14	Y14	Z14	X15	Y15	Z15	X16	Y16	Z16	X17	Y17	Z17	X18	Y18	Z18	X19	Y19	Z19	X20	Y20	Z20	X21	Y21	Z21	X22	Y22	Z22
0	0.0	0.9932551721546072	-0.6281967767135663	0.0	1.023811665032929	-0.6339183440402769	0.0	1.0161885954354357	-0.7580282954356022	0.0	1.002804781158856	-0.8763871598165167	0.0	0.9798820251398499	-0.9088854635742687	0.0	1.000898247389792	-0.9069706555516115	0.0	0.9989841660805232	-0.8954784356790887	0.0	0.9665247656884185	-0.6320090729577584	0.0	0.9837112650638739	-0.7656926195680421	0.0	1.0104495034220862	-0.9050845439771771	0.0	1.0238614507940054	-0.9700319253697691	0.0	1.0047442548991343	-0.9700239893392297	0.0	1.0161730250727647	-0.9280106834523149	0.0	0.9875280779141642	-0.4505965036973095	0.0	0.995159548498782	-0.366550841502435	0.0	0.9932552913014492	-0.41239497106352213	0.0	1.0410017107403768	-0.46396133025210395	0.0	1.0600862549216052	-0.5155276587190658	0.0	1.0658274570062425	-0.6014422518979309	0.0	0.9321418210599258	-0.4754380372822197	0.0	0.893950760715715	-0.5441885111280275	0.0	0.9398067377441808	-0.5671028466170619	0.0
1	0.03365384615384615	0.9906392976240884	-0.6333017891677601	0.0	1.0193948730396152	-0.6389267059413478	0.0	1.0123132367137375	-0.7623895383198454	0.0	1.0021827532294219	-0.8834735972704753	0.0	0.9811352623961103	-0.917974027513232	0.0	1.003681200947774	-0.9175209785359738	0.0	0.9986286391175428	-0.9066403062019582	0.0	0.964520923573767	-0.6379911697912598	0.0	0.9751308892663964	-0.7676609046533289	0.0	1.0021218484116396	-0.889602013241553	0.0	1.0154286105296282	-0.954889724272471	0.0	0.9965595733838816	-0.9533638457390968	0.0	1.0090441550301414	-0.9075993444970324	0.0	0.9864201503764284	-0.45849736707416017	0.0	0.9929220642257413	-0.37719751679118463	0.0	0.9929409611397831	-0.4228641395813752	0.0	1.0377523330231768	-0.4765566288343921	0.0	1.0583568184698524	-0.5354298195452314	0.0	1.0639291283656156	-0.6194815637575339	0.0	0.9326536447412677	-0.48304648654961024	0.0	0.8949039417826972	-0.5526787097096808	0.0	0.9302452756769252	-0.5914298790666984	0.0
2	0.0673076923076923	0.98793974763337	-0.6372722312785597	0.0	1.0151395738654378	-0.642664202530005	0.0	1.0085849703794285	-0.7656287315973923	0.0	1.001208576998288	-0.8893304532573771	0.0	0.9825572311757992	-0.9231627776170661	0.0	1.0056299306060144	-0.9240153007667667	0.0	0.9981892448906425	-0.9150143157222967	0.0	0.9622967660305274	-0.6426512315057601	0.0	0.9671789296568246	-0.7684940077381907	0.0	0.9937368271781049	-0.8748233149337517	0.0	1.0061693520823562	-0.9394952912223367	0.0	0.9879023709367365	-0.9366532989593651	0.0	1.0014992192913053	-0.8887164393537671	0.0	0.985043700130395	-0.46516513498084466	0.0	0.9905349676617707	-0.38656354540725213	0.0	0.992481908873087	-0.4320406642253001	0.0	1.0345160767712704	-0.48732522412750146	0.0	1.056677046166002	-0.5529667709535621	0.0	1.0619011200308137	-0.6346390794458961	0.0	0.9328308261876382	-0.4893042691608854	0.0	0.8952662567874409	-0.5593811930132073	0.0	0.9196388998509744	-0.6126862255177606	0.0
3	0.10096153846153846	0.984924340271454	-0.6392615642879317	0.0	1.0110116491028676	-0.644234245960037	0.0	1.0051566831491128	-0.7669689745600382	0.0	0.9998584201815891	-0.8930723553508048	0.0	0.9843839420839978	-0.922950286479636	0.0	1.0065868506189923	-0.9248444272312344	0.0	0.997749598103566	-0.9191063830174294	0.0	0.959552856525532	-0.6450014793887835	0.0	0.9602524703103505	-0.7672859090078296	0.0	0.9852979040984577	-0.8616191311163102	0.0	0.995645356036113	-0.9243057346490285	0.0	0.9785121855436067	-0.9205804271544771	0.0	0.9932995976732739	-0.8727441320924397	0.0	0.9831924070729107	-0.4697060703288453	0.0	0.987792681296736	-0.39365611681101687	0.0	0.9915194135935711	-0.4388190344474464	0.0	1.031244389469068	-0.4949783874471724	0.0	1.0551174132362626	-0.5660915179264807	0.0	1.0595281255340623	-0.6442634130181021	0.0	0.932340966196882	-0.49324265142092166	0.0	0.8944680864691053	-0.5627675028250336	0.0	0.9075724885025707	-0.6278859423893318	0.0
4	0.1346153846153846	0.9813332175413453	-0.6389339847624497	0.0	1.0068570420919778	-0.6433795791811481	0.0	1.002131134989386	-0.7661199793480461	0.0	0.9984139374497012	-0.8943029578247315	0.0	0.9867244238451602	-0.9185762976803209	0.0	1.006989920583949	-0.9211502796975153	0.0	0.9974942780967376	-0.9190417516449603	0.0	0.9560489840053478	-0.6447002738653578	0.0	0.9544060058344578	-0.7635897793063362	0.0	0.9769000264227649	-0.8509960998899319	0.0	0.984010980346865	-0.9102516982812952	0.0	0.9684128733108472	-0.9062595499474236	0.0	0.9845346615255469	-0.8608248429341249	0.0	0.9807625513764927	-0.47178751714708017	0.0	0.9844727590228859	-0.39796102831039554	0.0	0.9896069838728957	-0.4425465065411816	0.0	1.027861862451177	-0.49898661943898287	0.0	1.0538268712046468	-0.5735665127363208	0.0	1.0565728526364424	-0.6465622384423861	0.0	0.9309979784459822	-0.4944949602500317	0.0	0.8921968924163491	-0.5618943978743077	0.0	0.8944174354243963	-0.6349696780916717	0.0
5	0.16826923076923075	0.9771156995627307	-0.6365225845440694	0.0	1.0025914351629144	-0.6404589586863993	0.0	0.9994852146094075	-0.7632262315111099	0.0	0.9971627219232393	-0.8930336115383123	0.0	0.9893692021875446	-0.9125064912676902	0.0	1.0072707119987665	-0.9152805405997407	0.0	0.9974516747304498	-0.9158376404640088	0.0	0.951784055373613	-0.6420929324935115	0.0	0.9493831500041365	-0.7576201813749073	0.0	0.9686247601043622	-0.8438080602527858	0.0	0.9718295819998275	-0.8978989744219316	0.0	0.9578455447323123	-0.8943517895983398	0.0	0.9755228901369422	-0.85367433775627	0.0	0.9777252878054303	-0.47172095675259346	0.0	0.9804421136845892	-0.3995813997299756	0.0	0.9864965458455612	-0.443321646215215	0.0	1.0243033621924988	-0.4995786319624183	0.0	1.0529314228968665	-0.5753725104831909	0.0	1.0528377657588794	-0.6411963962198565	0.0	0.9288255010297672	-0.493315341723559	0.0	0.8886167772524539	-0.5567542165643613	0.0	0.8810284782543237	-0.6337617095469096	0.0
6	0.20192307692307693	0.9725087295779058	-0.6326808934299084	0.0	0.9982827568605749	-0.6361794184713977	0.0	0.9970897618243464	-0.7587653947664806	0.0	0.9961937792921266	-0.8896190950983323	0.0	0.9918862867916816	-0.9067837474010928	0.0	1.0075111684850317	-0.9092430935274421	0.0	0.9974171200176828	-0.9106288406238453	0.0	0.9470132125496429	-0.6379390792412294	0.0	0.944797888782334	-0.7502887808418474	0.0	0.9604477173200824	-0.8403358863215519	0.0	0.9597277750211588	-0.8871295790320561	0.0	0.9471808826444666	-0.8847845687563736	0.0	0.9665479384810812	-0.8512443667530444	0.0	0.9741159673435792	-0.4703095060593382	0.0	0.9757511698666206	-0.3992146861060437	0.0	0.9822622659652506	-0.4419839788431982	0.0	1.0205272411698039	-0.4976351391669408	0.0	1.0523396446929292	-0.5726463557650219	0.0	1.0482154153088032	-0.6294060967638154	0.0	0.9259797747239257	-0.49045528535649574	0.0	0.8842908500721982	-0.5483965474718397	0.0	0.8683577275809397	-0.6260221587341568	0.0
7	0.23557692307692307	0.9678849526524901	-0.628368662416816	0.0	0.9940747389336645	-0.631458476608343	0.0	0.99476941329493	-0.7535250540022767	0.0	0.9953880884242047	-0.8846929146417647	0.0	0.9938128896262515	-0.9023578696444331	0.0	1.0075659021410959	-0.9041469097229672	0.0	0.9971127877852559	-0.9043659184461444	0.0	0.9421043734007372	-0.6332299686137907	0.0	0.9403499622672543	-0.743005928722231	0.0	0.9522562235517065	-0.8400413540572587	0.0	0.948235919273582	-0.8775523185838292	0.0	0.9368482905962039	-0.8771112945480994	0.0	0.9576764962749086	-0.8525039094436911	0.0	0.9700108853129211	-0.46851753628707843	0.0	0.9705885505718373	-0.39796316577987406	0.0	0.9771874899975793	-0.4397614477695105	0.0	1.0164846393039952	-0.49445530094066925	0.0	1.0516856865721744	-0.5671625993476292	0.0	1.042685622951697	-0.613490798921181	0.0	0.922637397118595	-0.48700053423563366	0.0	0.8798234306081879	-0.5386469262244434	0.0	0.8571566518856567	-0.6146644969776709	0.0
8	0.2692307692307692	0.9635246608857387	-0.6247827297697344	0.0	0.9900528374249804	-0.6274140273656582	0.0	0.9923566545637971	-0.7485600796177209	0.0	0.9944929033118691	-0.8789835324263315	0.0	0.9947768966293664	-0.8992930497959982	0.0	1.0072852625659168	-0.9003414953427951	0.0	0.9963139175869332	-0.8977546918179843	0.0	0.9373778837093011	-0.629148366671071	0.0	0.9359303037556281	-0.737251303244678	0.0	0.9439871284752969	-0.841759670701894	0.0	0.9378789275674575	-0.8690358459189077	0.0	0.9273233236409358	-0.8709134709997691	0.0	0.9488494367332412	-0.8557378308755106	0.0	0.9654984391439836	-0.4672301133242085	0.0	0.9651744002268446	-0.39706562719074134	0.0	0.9716187239583083	-0.43790722524140097	0.0	1.012111629069624	-0.4914339333737916	0.0	1.0504782663038035	-0.560847466045934	0.0	1.0362870125894459	-0.5960866569853284	0.0	0.9189339426219665	-0.4841764287782548	0.0	0.8755580127951352	-0.5295967684694113	0.0	0.8478352808503584	-0.602853579885282	0.0
9	0.30288461538461536	0.9594789803223356	-0.6230907870641218	0.0	0.9861738083312717	-0.6251571187535558	0.0	0.9897629216502324	-0.7449250052348287	0.0	0.9932226977008175	-0.873070922584376	0.0	0.9945818853128916	-0.8972743845140432	0.0	1.0065724547891648	-0.8977251914347785	0.0	0.994857598245238	-0.8912349849401626	0.0	0.9330026717484979	-0.6268521489727987	0.0	0.9315659594608979	-0.7340720852684236	0.0	0.9357666089427696	-0.8442674347142589	0.0	0.9292695606306952	-0.8619311030791134	0.0	0.9191213252598663	-0.8660179908260079	0.0	0.9401004534475712	-0.8593487913696229	0.0	0.9606846371977358	-0.4672495758326753	0.0	0.9597056724509396	-0.3976111901798542	0.0	0.9658971030172852	-0.4375113616228285	0.0	1.007387625864279	-0.48980153207273003	0.0	1.0482930306073344	-0.5555478144890721	0.0	1.0291345135542638	-0.5796834007809734	0.0	0.9149434604356435	-0.4831568494121737	0.0	0.8715557606754741	-0.523135831356059	0.0	0.8404995837015246	-0.5933205702323466	0.0
10	0.3365384615384615	0.955604280171314	-0.6240880400870381	0.0	0.982315030446994	-0.6254734501362919	0.0	0.9870278653999529	-0.7433165935087039	0.0	0.9913558456318169	-0.867293600823375	0.0	0.9932198596299744	-0.8959975526741002	0.0	1.0053353329115589	-0.8960099719838388	0.0	0.9926356492910975	-0.8849903457397466	0.0	0.9289818583746444	-0.6271536396405998	0.0	0.927313769016994	-0.7338918383904489	0.0	0.9279178301566381	-0.8469031716093675	0.0	0.9229588888167203	-0.8569794789919589	0.0	0.9126658981924533	-0.8626221814678807	0.0	0.9316565370711484	-0.8626157997516813	0.0	0.9556932924985926	-0.46934346049707587	0.0	0.9543124728950156	-0.40033596296023755	0.0	0.9602943111527913	-0.43942144978063513	0.0	1.0023837730246212	-0.49052834698615244	0.0	1.0448829582456716	-0.5528564150657714	0.0	1.0215103403114951	-0.5663904259135022	0.0	0.9106898610189303	-0.48494016908527676	0.0	0.8677440060774191	-0.5206942471908722	0.0	0.8350628162606935	-0.5880246265351493	0.0
